<svg viewBox="0 0 512 512" xmlns="http://www.w3.org/2000/svg">
  <defs>
    <!-- Brand Colors -->
    <linearGradient id="houseGradientRupee" x1="0%" y1="0%" x2="0%" y2="100%">
      <stop offset="0%" style="stop-color:#1565C0;stop-opacity:1" />
      <stop offset="100%" style="stop-color:#0D47A1;stop-opacity:1" />
    </linearGradient>
    <linearGradient id="bodyGradient" x1="0%" y1="0%" x2="0%" y2="100%">
      <stop offset="0%" style="stop-color:#00796B;stop-opacity:0.9" />
      <stop offset="100%" style="stop-color:#004D40;stop-opacity:0.9" />
    </linearGradient>
    <linearGradient id="rupeeGradient" x1="0%" y1="0%" x2="100%" y2="100%">
      <stop offset="0%" style="stop-color:#FFD700;stop-opacity:1" />
      <stop offset="100%" style="stop-color:#FFC107;stop-opacity:1" />
    </linearGradient>
  </defs>
  
  <!-- Background circle for app icon -->
  <circle cx="256" cy="256" r="240" fill="#FAFAFA" stroke="#E0E0E0" stroke-width="2"/>
  
  <!-- House structure -->
  <g id="house-rupee">
    <!-- Roof outline -->
    <path d="M 140 240 L 256 140 L 372 240 L 356 240 L 256 160 L 156 240 Z" 
          fill="url(#houseGradientRupee)" 
          stroke="#0D47A1" 
          stroke-width="4"/>
    
    <!-- House body -->
    <path d="M 156 240 L 356 240 L 356 360 L 156 360 Z" 
          fill="url(#bodyGradient)" 
          stroke="#004D40" 
          stroke-width="3"/>
    
    <!-- Door frame -->
    <rect x="226" y="300" width="60" height="60" 
          fill="#388E3C" 
          stroke="#2E7D32" 
          stroke-width="2"/>
    
    <!-- Door -->
    <rect x="230" y="304" width="52" height="52" 
          fill="#FAFAFA" 
          stroke="#2E7D32" 
          stroke-width="1"/>
    
    <!-- Window (left) -->
    <rect x="170" y="260" width="32" height="32" 
          fill="#FAFAFA" 
          stroke="#004D40" 
          stroke-width="2"/>
    <line x1="186" y1="260" x2="186" y2="292" stroke="#004D40" stroke-width="1"/>
    <line x1="170" y1="276" x2="202" y2="276" stroke="#004D40" stroke-width="1"/>
    
    <!-- Window (right) -->
    <rect x="310" y="260" width="32" height="32" 
          fill="#FAFAFA" 
          stroke="#004D40" 
          stroke-width="2"/>
    <line x1="326" y1="260" x2="326" y2="292" stroke="#004D40" stroke-width="1"/>
    <line x1="310" y1="276" x2="342" y2="276" stroke="#004D40" stroke-width="1"/>
  </g>
  
  <!-- Indian Rupee Symbol -->
  <g id="rupee-symbol" transform="translate(256, 200)">
    <!-- Rupee symbol background circle -->
    <circle cx="0" cy="0" r="35" 
            fill="url(#rupeeGradient)" 
            stroke="#FFB000" 
            stroke-width="3"/>
    
    <!-- Rupee symbol paths -->
    <g transform="scale(1.2, 1.2)">
      <!-- Top horizontal lines -->
      <path d="M -15 -12 L 15 -12" 
            stroke="#1A1A1A" 
            stroke-width="3" 
            stroke-linecap="round"/>
      <path d="M -15 -6 L 15 -6" 
            stroke="#1A1A1A" 
            stroke-width="3" 
            stroke-linecap="round"/>
      
      <!-- Vertical line (left part of ₹) -->
      <path d="M -12 -12 L -12 15" 
            stroke="#1A1A1A" 
            stroke-width="3" 
            stroke-linecap="round"/>
      
      <!-- R curve -->
      <path d="M -12 -6 Q 8 -6 8 3 Q 8 12 -2 12 L -12 12" 
            fill="none" 
            stroke="#1A1A1A" 
            stroke-width="3" 
            stroke-linecap="round"/>
      
      <!-- Diagonal line -->
      <path d="M 0 6 L 15 15" 
            stroke="#1A1A1A" 
            stroke-width="3" 
            stroke-linecap="round"/>
    </g>
    
    <!-- Subtle shadow for rupee symbol -->
    <circle cx="2" cy="2" r="35" 
            fill="#000000" 
            opacity="0.1" 
            style="z-index: -1;"/>
  </g>
  
  <!-- Decorative elements -->
  <g id="prosperity-dots">
    <!-- Small golden dots suggesting growth/prosperity -->
    <circle cx="380" cy="180" r="4" fill="#FFD700" opacity="0.7"/>
    <circle cx="390" cy="200" r="3" fill="#FFD700" opacity="0.5"/>
    <circle cx="400" cy="220" r="2" fill="#FFD700" opacity="0.3"/>
    
    <circle cx="132" cy="180" r="4" fill="#FFD700" opacity="0.7"/>
    <circle cx="122" cy="200" r="3" fill="#FFD700" opacity="0.5"/>
    <circle cx="112" cy="220" r="2" fill="#FFD700" opacity="0.3"/>
  </g>
  
  <!-- Base shadow -->
  <ellipse cx="256" cy="380" rx="140" ry="25" fill="#000000" opacity="0.08"/>
</svg>