<svg viewBox="0 0 512 512" xmlns="http://www.w3.org/2000/svg">
  <defs>
    <!-- Brand Colors -->
    <linearGradient id="shieldGradient" x1="0%" y1="0%" x2="0%" y2="100%">
      <stop offset="0%" style="stop-color:#1565C0;stop-opacity:1" />
      <stop offset="100%" style="stop-color:#0D47A1;stop-opacity:1" />
    </linearGradient>
    <linearGradient id="homeGradient" x1="0%" y1="0%" x2="0%" y2="100%">
      <stop offset="0%" style="stop-color:#00796B;stop-opacity:1" />
      <stop offset="100%" style="stop-color:#004D40;stop-opacity:1" />
    </linearGradient>
    <linearGradient id="securityGradient" x1="0%" y1="0%" x2="100%" y2="100%">
      <stop offset="0%" style="stop-color:#FFD700;stop-opacity:1" />
      <stop offset="100%" style="stop-color:#FFC107;stop-opacity:1" />
    </linearGradient>
  </defs>
  
  <!-- Background circle for app icon -->
  <circle cx="256" cy="256" r="240" fill="#FAFAFA" stroke="#E0E0E0" stroke-width="2"/>
  
  <!-- Shield outline -->
  <g id="shield">
    <path d="M 256 120 
             Q 180 140, 180 220 
             Q 180 300, 200 360 
             Q 230 400, 256 410 
             Q 282 400, 312 360 
             Q 332 300, 332 220 
             Q 332 140, 256 120 Z" 
          fill="url(#shieldGradient)" 
          stroke="#0D47A1" 
          stroke-width="4"/>
    
    <!-- Shield inner glow -->
    <path d="M 256 130 
             Q 190 148, 190 220 
             Q 190 290, 208 340 
             Q 232 375, 256 385 
             Q 280 375, 304 340 
             Q 322 290, 322 220 
             Q 322 148, 256 130 Z" 
          fill="url(#shieldGradient)" 
          opacity="0.3"/>
  </g>
  
  <!-- Home inside shield -->
  <g id="protected-home" transform="translate(256, 240)">
    <!-- House roof -->
    <path d="M -45 -20 L 0 -60 L 45 -20 L 35 -20 L 0 -45 L -35 -20 Z" 
          fill="url(#homeGradient)" 
          stroke="#004D40" 
          stroke-width="3"/>
    
    <!-- House body -->
    <rect x="-35" y="-20" width="70" height="60" 
          fill="url(#homeGradient)" 
          opacity="0.9"
          stroke="#004D40" 
          stroke-width="3"/>
    
    <!-- Door -->
    <rect x="-12" y="15" width="24" height="25" 
          fill="#388E3C" 
          stroke="#2E7D32" 
          stroke-width="2"/>
    
    <!-- Door panel -->
    <rect x="-10" y="17" width="20" height="21" 
          fill="#FAFAFA" 
          stroke="#2E7D32" 
          stroke-width="1"/>
    
    <!-- Door handle -->
    <circle cx="6" cy="27" r="2" fill="#FFD700"/>
    
    <!-- Windows -->
    <rect x="-28" y="-5" width="12" height="12" 
          fill="#FAFAFA" 
          stroke="#004D40" 
          stroke-width="1"/>
    <line x1="-22" y1="-5" x2="-22" y2="7" stroke="#004D40" stroke-width="0.5"/>
    <line x1="-28" y1="1" x2="-16" y2="1" stroke="#004D40" stroke-width="0.5"/>
    
    <rect x="16" y="-5" width="12" height="12" 
          fill="#FAFAFA" 
          stroke="#004D40" 
          stroke-width="1"/>
    <line x1="22" y1="-5" x2="22" y2="7" stroke="#004D40" stroke-width="0.5"/>
    <line x1="16" y1="1" x2="28" y2="1" stroke="#004D40" stroke-width="0.5"/>
  </g>
  
  <!-- Security diamond emblem -->
  <g id="security-emblem" transform="translate(256, 185)">
    <!-- Diamond shape -->
    <path d="M 0 -12 L 8 0 L 0 12 L -8 0 Z" 
          fill="url(#securityGradient)" 
          stroke="#FFB000" 
          stroke-width="2"/>
    
    <!-- Inner diamond -->
    <path d="M 0 -6 L 4 0 L 0 6 L -4 0 Z" 
          fill="#FFE082" 
          opacity="0.8"/>
    
    <!-- Security dot -->
    <circle cx="0" cy="0" r="2" fill="#1A1A1A"/>
  </g>
  
  <!-- Protection rays -->
  <g id="protection-rays" opacity="0.6">
    <path d="M 256 150 L 256 140" stroke="#42A5F5" stroke-width="3" stroke-linecap="round"/>
    <path d="M 290 160 L 295 155" stroke="#42A5F5" stroke-width="2" stroke-linecap="round"/>
    <path d="M 310 190 L 315 185" stroke="#42A5F5" stroke-width="2" stroke-linecap="round"/>
    <path d="M 222 160 L 217 155" stroke="#42A5F5" stroke-width="2" stroke-linecap="round"/>
    <path d="M 202 190 L 197 185" stroke="#42A5F5" stroke-width="2" stroke-linecap="round"/>
  </g>
  
  <!-- Advisory elements -->
  <g id="advisory-dots">
    <!-- Trust indicators around shield -->
    <circle cx="200" cy="300" r="3" fill="#388E3C" opacity="0.7"/>
    <circle cx="312" cy="300" r="3" fill="#388E3C" opacity="0.7"/>
    <circle cx="220" cy="350" r="2" fill="#388E3C" opacity="0.5"/>
    <circle cx="292" cy="350" r="2" fill="#388E3C" opacity="0.5"/>
  </g>
  
  <!-- Base shadow -->
  <ellipse cx="256" cy="390" rx="120" ry="15" fill="#000000" opacity="0.1"/>
  
  <!-- Shield reflection highlight -->
  <path d="M 256 120 
           Q 200 135, 200 200 
           Q 200 250, 210 280" 
        fill="none" 
        stroke="#FFFFFF" 
        stroke-width="2" 
        opacity="0.3" 
        stroke-linecap="round"/>
</svg>