<svg viewBox="0 0 512 512" xmlns="http://www.w3.org/2000/svg">
  <defs>
    <!-- Simplified gradients for small size clarity -->
    <linearGradient id="houseSimple" x1="0%" y1="0%" x2="0%" y2="100%">
      <stop offset="0%" style="stop-color:#1565C0;stop-opacity:1" />
      <stop offset="100%" style="stop-color:#0D47A1;stop-opacity:1" />
    </linearGradient>
    <linearGradient id="rupeeSimple" x1="0%" y1="0%" x2="100%" y2="100%">
      <stop offset="0%" style="stop-color:#FFD700;stop-opacity:1" />
      <stop offset="100%" style="stop-color:#FFC107;stop-opacity:1" />
    </linearGradient>
  </defs>
  
  <!-- Clean background -->
  <circle cx="256" cy="256" r="240" fill="#FAFAFA"/>
  
  <!-- Simplified house outline -->
  <g id="house-simple">
    <!-- Roof -->
    <path d="M 160 240 L 256 160 L 352 240 L 320 240 L 256 190 L 192 240 Z" 
          fill="url(#houseSimple)" 
          stroke="#0D47A1" 
          stroke-width="6"/>
    
    <!-- House body -->
    <rect x="192" y="240" width="128" height="100" 
          fill="url(#houseSimple)" 
          opacity="0.8"
          stroke="#0D47A1" 
          stroke-width="6"/>
    
    <!-- Simple door -->
    <rect x="240" y="290" width="32" height="50" 
          fill="#FAFAFA" 
          stroke="#0D47A1" 
          stroke-width="4"/>
  </g>
  
  <!-- Large, clear rupee symbol -->
  <g id="rupee-simple" transform="translate(256, 210)">
    <!-- Background circle -->
    <circle cx="0" cy="0" r="40" 
            fill="url(#rupeeSimple)" 
            stroke="#FFB000" 
            stroke-width="4"/>
    
    <!-- Bold rupee symbol -->
    <g transform="scale(1.4, 1.4)">
      <!-- Top lines -->
      <path d="M -12 -10 L 12 -10" 
            stroke="#1A1A1A" 
            stroke-width="4" 
            stroke-linecap="round"/>
      <path d="M -12 -4 L 12 -4" 
            stroke="#1A1A1A" 
            stroke-width="4" 
            stroke-linecap="round"/>
      
      <!-- Vertical line -->
      <path d="M -10 -10 L -10 12" 
            stroke="#1A1A1A" 
            stroke-width="4" 
            stroke-linecap="round"/>
      
      <!-- R curve (simplified) -->
      <path d="M -10 -4 Q 6 -4 6 2 Q 6 8 -2 8 L -10 8" 
            fill="none" 
            stroke="#1A1A1A" 
            stroke-width="4" 
            stroke-linecap="round"/>
      
      <!-- Diagonal -->
      <path d="M 0 4 L 12 12" 
            stroke="#1A1A1A" 
            stroke-width="4" 
            stroke-linecap="round"/>
    </g>
  </g>
  
  <!-- Minimal shadow -->
  <ellipse cx="256" cy="360" rx="80" ry="15" fill="#000000" opacity="0.1"/>
</svg>